<svg xmlns="http://www.w3.org/2000/svg" xmlns:xlink="http://www.w3.org/1999/xlink" width="258" zoomAndPan="magnify" viewBox="0 0 193.5 57.749997" height="77" preserveAspectRatio="xMidYMid meet" version="1.0"><defs><g/><clipPath id="96ed329b1c"><path d="M 68.574219 0 L 126.074219 0 L 126.074219 57.5 L 68.574219 57.5 Z M 68.574219 0 " clip-rule="nonzero"/></clipPath></defs><g clip-path="url(#96ed329b1c)"><path fill="#b90015" d="M 105.308594 28.707031 L 126.355469 -0.00390625 L 124.109375 -0.00390625 L 81.957031 57.496094 L 84.203125 57.496094 L 97.5 39.359375 L 110.789062 57.496094 L 126.410156 57.496094 Z M 98.292969 20.015625 L 98.613281 19.574219 L 84.265625 -0.00390625 L 68.644531 -0.00390625 L 89.691406 28.707031 L 68.585938 57.496094 L 70.832031 57.496094 L 98.300781 20.023438 Z M 98.292969 20.015625 " fill-opacity="1" fill-rule="nonzero"/></g><g fill="#000000" fill-opacity="1"><g transform="translate(20.749686, 31.305809)"><g><path d="M 3.859375 -1.15625 C 4.203125 -1.15625 4.523438 -1.226562 4.828125 -1.375 C 5.128906 -1.519531 5.394531 -1.726562 5.625 -2 L 6.515625 -1.109375 C 6.203125 -0.742188 5.800781 -0.453125 5.3125 -0.234375 C 4.832031 -0.015625 4.335938 0.09375 3.828125 0.09375 C 3.335938 0.09375 2.878906 0.00390625 2.453125 -0.171875 C 2.023438 -0.347656 1.65625 -0.582031 1.34375 -0.875 C 1.03125 -1.175781 0.785156 -1.53125 0.609375 -1.9375 C 0.429688 -2.351562 0.34375 -2.800781 0.34375 -3.28125 C 0.34375 -3.75 0.429688 -4.191406 0.609375 -4.609375 C 0.785156 -5.023438 1.03125 -5.378906 1.34375 -5.671875 C 1.65625 -5.972656 2.023438 -6.210938 2.453125 -6.390625 C 2.878906 -6.566406 3.335938 -6.65625 3.828125 -6.65625 C 4.347656 -6.65625 4.851562 -6.539062 5.34375 -6.3125 C 5.84375 -6.09375 6.242188 -5.796875 6.546875 -5.421875 L 5.640625 -4.515625 C 5.398438 -4.804688 5.125 -5.023438 4.8125 -5.171875 C 4.507812 -5.328125 4.179688 -5.40625 3.828125 -5.40625 C 3.535156 -5.40625 3.257812 -5.347656 3 -5.234375 C 2.738281 -5.128906 2.515625 -4.984375 2.328125 -4.796875 C 2.140625 -4.609375 1.992188 -4.382812 1.890625 -4.125 C 1.785156 -3.863281 1.734375 -3.582031 1.734375 -3.28125 C 1.734375 -2.976562 1.785156 -2.695312 1.890625 -2.4375 C 2.003906 -2.175781 2.15625 -1.953125 2.34375 -1.765625 C 2.53125 -1.578125 2.753906 -1.425781 3.015625 -1.3125 C 3.273438 -1.207031 3.554688 -1.15625 3.859375 -1.15625 Z M 3.859375 -1.15625 "/></g></g></g><g fill="#000000" fill-opacity="1"><g transform="translate(30.09552, 31.305809)"><g><path d="M -0.03125 0 L 2.65625 -6.546875 L 4.234375 -6.546875 L 6.890625 0 L 5.421875 0 L 4.75 -1.71875 L 2.046875 -1.71875 L 1.375 0 Z M 2.46875 -2.8125 L 4.34375 -2.8125 L 3.421875 -5.21875 Z M 2.46875 -2.8125 "/></g></g></g><g fill="#000000" fill-opacity="1"><g transform="translate(39.57243, 31.305809)"><g><path d="M 0.59375 0 L 0.59375 -6.546875 L 3.875 -6.546875 C 4.195312 -6.546875 4.492188 -6.492188 4.765625 -6.390625 C 5.035156 -6.296875 5.265625 -6.15625 5.453125 -5.96875 C 5.648438 -5.789062 5.800781 -5.570312 5.90625 -5.3125 C 6.019531 -5.0625 6.078125 -4.789062 6.078125 -4.5 C 6.078125 -4.195312 6.019531 -3.921875 5.90625 -3.671875 C 5.800781 -3.429688 5.648438 -3.21875 5.453125 -3.03125 C 5.253906 -2.851562 5.019531 -2.710938 4.75 -2.609375 C 4.488281 -2.515625 4.195312 -2.46875 3.875 -2.46875 L 1.953125 -2.46875 L 1.953125 0 Z M 3.71875 -5.375 L 1.953125 -5.375 L 1.953125 -3.59375 L 3.71875 -3.59375 C 4.019531 -3.59375 4.257812 -3.671875 4.4375 -3.828125 C 4.613281 -3.992188 4.703125 -4.210938 4.703125 -4.484375 C 4.703125 -4.753906 4.613281 -4.96875 4.4375 -5.125 C 4.257812 -5.289062 4.019531 -5.375 3.71875 -5.375 Z M 3.71875 -5.375 "/></g></g></g><g fill="#000000" fill-opacity="1"><g transform="translate(48.571844, 31.305809)"><g><path d="M 0.59375 0 L 0.59375 -6.546875 L 1.953125 -6.546875 L 1.953125 0 Z M 0.59375 0 "/></g></g></g><g fill="#000000" fill-opacity="1"><g transform="translate(53.741904, 31.305809)"><g><path d="M 0.171875 -5.359375 L 0.171875 -6.546875 L 5.9375 -6.546875 L 5.9375 -5.359375 L 3.734375 -5.359375 L 3.734375 0 L 2.375 0 L 2.375 -5.359375 Z M 0.171875 -5.359375 "/></g></g></g><g fill="#000000" fill-opacity="1"><g transform="translate(62.469796, 31.305809)"><g><path d="M -0.03125 0 L 2.65625 -6.546875 L 4.234375 -6.546875 L 6.890625 0 L 5.421875 0 L 4.75 -1.71875 L 2.046875 -1.71875 L 1.375 0 Z M 2.46875 -2.8125 L 4.34375 -2.8125 L 3.421875 -5.21875 Z M 2.46875 -2.8125 "/></g></g></g><g fill="#000000" fill-opacity="1"><g transform="translate(71.946704, 31.305809)"><g><path d="M 0.59375 0 L 0.59375 -6.546875 L 1.953125 -6.546875 L 1.953125 -1.203125 L 5.53125 -1.203125 L 5.53125 0 Z M 0.59375 0 "/></g></g></g><g fill="#000000" fill-opacity="1"><g transform="translate(117.071723, 31.305809)"><g><path d="M 0.59375 0 L 0.59375 -6.546875 L 5.65625 -6.546875 L 5.65625 -5.375 L 1.953125 -5.375 L 1.953125 -3.828125 L 4.40625 -3.828125 L 4.40625 -2.6875 L 1.953125 -2.6875 L 1.953125 0 Z M 0.59375 0 "/></g></g></g><g fill="#000000" fill-opacity="1"><g transform="translate(125.677899, 31.305809)"><g><path d="M 0.59375 0 L 0.59375 -6.546875 L 1.953125 -6.546875 L 1.953125 0 Z M 0.59375 0 "/></g></g></g><g fill="#000000" fill-opacity="1"><g transform="translate(130.847959, 31.305809)"><g><path d="M 0.59375 -6.546875 L 1.875 -6.546875 L 5.140625 -2.3125 L 5.140625 -6.546875 L 6.40625 -6.546875 L 6.40625 0 L 5.21875 0 L 1.875 -4.375 L 1.875 0 L 0.59375 0 Z M 0.59375 -6.546875 "/></g></g></g><g fill="#000000" fill-opacity="1"><g transform="translate(140.484038, 31.305809)"><g><path d="M -0.03125 0 L 2.65625 -6.546875 L 4.234375 -6.546875 L 6.890625 0 L 5.421875 0 L 4.75 -1.71875 L 2.046875 -1.71875 L 1.375 0 Z M 2.46875 -2.8125 L 4.34375 -2.8125 L 3.421875 -5.21875 Z M 2.46875 -2.8125 "/></g></g></g><g fill="#000000" fill-opacity="1"><g transform="translate(149.960948, 31.305809)"><g><path d="M 0.59375 -6.546875 L 1.875 -6.546875 L 5.140625 -2.3125 L 5.140625 -6.546875 L 6.40625 -6.546875 L 6.40625 0 L 5.21875 0 L 1.875 -4.375 L 1.875 0 L 0.59375 0 Z M 0.59375 -6.546875 "/></g></g></g><g fill="#000000" fill-opacity="1"><g transform="translate(159.597024, 31.305809)"><g><path d="M 3.859375 -1.15625 C 4.203125 -1.15625 4.523438 -1.226562 4.828125 -1.375 C 5.128906 -1.519531 5.394531 -1.726562 5.625 -2 L 6.515625 -1.109375 C 6.203125 -0.742188 5.800781 -0.453125 5.3125 -0.234375 C 4.832031 -0.015625 4.335938 0.09375 3.828125 0.09375 C 3.335938 0.09375 2.878906 0.00390625 2.453125 -0.171875 C 2.023438 -0.347656 1.65625 -0.582031 1.34375 -0.875 C 1.03125 -1.175781 0.785156 -1.53125 0.609375 -1.9375 C 0.429688 -2.351562 0.34375 -2.800781 0.34375 -3.28125 C 0.34375 -3.75 0.429688 -4.191406 0.609375 -4.609375 C 0.785156 -5.023438 1.03125 -5.378906 1.34375 -5.671875 C 1.65625 -5.972656 2.023438 -6.210938 2.453125 -6.390625 C 2.878906 -6.566406 3.335938 -6.65625 3.828125 -6.65625 C 4.347656 -6.65625 4.851562 -6.539062 5.34375 -6.3125 C 5.84375 -6.09375 6.242188 -5.796875 6.546875 -5.421875 L 5.640625 -4.515625 C 5.398438 -4.804688 5.125 -5.023438 4.8125 -5.171875 C 4.507812 -5.328125 4.179688 -5.40625 3.828125 -5.40625 C 3.535156 -5.40625 3.257812 -5.347656 3 -5.234375 C 2.738281 -5.128906 2.515625 -4.984375 2.328125 -4.796875 C 2.140625 -4.609375 1.992188 -4.382812 1.890625 -4.125 C 1.785156 -3.863281 1.734375 -3.582031 1.734375 -3.28125 C 1.734375 -2.976562 1.785156 -2.695312 1.890625 -2.4375 C 2.003906 -2.175781 2.15625 -1.953125 2.34375 -1.765625 C 2.53125 -1.578125 2.753906 -1.425781 3.015625 -1.3125 C 3.273438 -1.207031 3.554688 -1.15625 3.859375 -1.15625 Z M 3.859375 -1.15625 "/></g></g></g><g fill="#000000" fill-opacity="1"><g transform="translate(168.942855, 31.305809)"><g><path d="M 0.59375 0 L 0.59375 -6.546875 L 5.625 -6.546875 L 5.625 -5.375 L 1.953125 -5.375 L 1.953125 -3.875 L 4.375 -3.875 L 4.375 -2.734375 L 1.953125 -2.734375 L 1.953125 -1.171875 L 5.65625 -1.171875 L 5.65625 0 Z M 0.59375 0 "/></g></g></g><g fill="#000000" fill-opacity="1"><g transform="translate(55.92754, 39.100523)"><g><path d="M 0.296875 -1.375 C 0.296875 -1.9375 0.414062 -2.441406 0.65625 -2.890625 C 0.90625 -3.335938 1.265625 -3.691406 1.734375 -3.953125 L 2.15625 -3.484375 C 1.78125 -3.253906 1.492188 -2.957031 1.296875 -2.59375 C 1.097656 -2.226562 1 -1.820312 1 -1.375 C 1 -0.914062 1.097656 -0.503906 1.296875 -0.140625 C 1.492188 0.210938 1.78125 0.503906 2.15625 0.734375 L 1.734375 1.21875 C 1.265625 0.945312 0.90625 0.585938 0.65625 0.140625 C 0.414062 -0.304688 0.296875 -0.8125 0.296875 -1.375 Z M 0.296875 -1.375 "/></g></g></g><g fill="#000000" fill-opacity="1"><g transform="translate(59.760944, 39.100523)"><g><path d="M 0.34375 0 L 0.34375 -3.875 L 2.296875 -3.875 C 2.484375 -3.875 2.65625 -3.84375 2.8125 -3.78125 C 2.976562 -3.726562 3.117188 -3.644531 3.234375 -3.53125 C 3.347656 -3.425781 3.4375 -3.296875 3.5 -3.140625 C 3.5625 -2.992188 3.59375 -2.832031 3.59375 -2.65625 C 3.59375 -2.488281 3.5625 -2.332031 3.5 -2.1875 C 3.4375 -2.039062 3.347656 -1.910156 3.234375 -1.796875 C 3.117188 -1.691406 2.976562 -1.609375 2.8125 -1.546875 C 2.65625 -1.492188 2.484375 -1.46875 2.296875 -1.46875 L 1.15625 -1.46875 L 1.15625 0 Z M 2.203125 -3.1875 L 1.15625 -3.1875 L 1.15625 -2.125 L 2.203125 -2.125 C 2.378906 -2.125 2.519531 -2.171875 2.625 -2.265625 C 2.726562 -2.367188 2.78125 -2.5 2.78125 -2.65625 C 2.78125 -2.8125 2.726562 -2.9375 2.625 -3.03125 C 2.519531 -3.132812 2.378906 -3.1875 2.203125 -3.1875 Z M 2.203125 -3.1875 "/></g></g></g><g fill="#000000" fill-opacity="1"><g transform="translate(65.084097, 39.100523)"><g><path d="M 0.09375 -3.171875 L 0.09375 -3.875 L 3.515625 -3.875 L 3.515625 -3.171875 L 2.21875 -3.171875 L 2.21875 0 L 1.40625 0 L 1.40625 -3.171875 Z M 0.09375 -3.171875 "/></g></g></g><g fill="#000000" fill-opacity="1"><g transform="translate(70.246644, 39.100523)"><g><path d="M 1.546875 0 L 1.546875 -1.484375 L -0.03125 -3.875 L 0.890625 -3.875 L 1.984375 -2.203125 L 3.078125 -3.875 L 3.953125 -3.875 L 2.359375 -1.484375 L 2.359375 0 Z M 1.546875 0 "/></g></g></g><g fill="#000000" fill-opacity="1"><g transform="translate(75.70825, 39.100523)"><g><path d="M 1.984375 -1.375 C 1.984375 -0.8125 1.859375 -0.304688 1.609375 0.140625 C 1.367188 0.585938 1.015625 0.945312 0.546875 1.21875 L 0.140625 0.734375 C 0.503906 0.503906 0.785156 0.210938 0.984375 -0.140625 C 1.179688 -0.503906 1.28125 -0.914062 1.28125 -1.375 C 1.28125 -1.820312 1.179688 -2.226562 0.984375 -2.59375 C 0.785156 -2.957031 0.503906 -3.253906 0.140625 -3.484375 L 0.546875 -3.953125 C 1.015625 -3.691406 1.367188 -3.335938 1.609375 -2.890625 C 1.859375 -2.441406 1.984375 -1.9375 1.984375 -1.375 Z M 1.984375 -1.375 "/></g></g></g><g fill="#000000" fill-opacity="1"><g transform="translate(117.071723, 39.100523)"><g><path d="M 0.34375 0 L 0.34375 -3.875 L 1.15625 -3.875 L 1.15625 -0.703125 L 3.28125 -0.703125 L 3.28125 0 Z M 0.34375 0 "/></g></g></g><g fill="#000000" fill-opacity="1"><g transform="translate(122.101358, 39.100523)"><g><path d="M 0.09375 -3.171875 L 0.09375 -3.875 L 3.515625 -3.875 L 3.515625 -3.171875 L 2.21875 -3.171875 L 2.21875 0 L 1.40625 0 L 1.40625 -3.171875 Z M 0.09375 -3.171875 "/></g></g></g><g fill="#000000" fill-opacity="1"><g transform="translate(127.263905, 39.100523)"><g><path d="M 0.34375 0 L 0.34375 -3.875 L 1.84375 -3.875 C 2.132812 -3.875 2.40625 -3.820312 2.65625 -3.71875 C 2.90625 -3.625 3.117188 -3.488281 3.296875 -3.3125 C 3.484375 -3.144531 3.628906 -2.941406 3.734375 -2.703125 C 3.835938 -2.460938 3.890625 -2.207031 3.890625 -1.9375 C 3.890625 -1.664062 3.835938 -1.410156 3.734375 -1.171875 C 3.628906 -0.929688 3.484375 -0.722656 3.296875 -0.546875 C 3.117188 -0.378906 2.90625 -0.242188 2.65625 -0.140625 C 2.40625 -0.046875 2.132812 0 1.84375 0 Z M 1.84375 -3.171875 L 1.15625 -3.171875 L 1.15625 -0.71875 L 1.84375 -0.71875 C 2.007812 -0.71875 2.164062 -0.75 2.3125 -0.8125 C 2.46875 -0.875 2.597656 -0.957031 2.703125 -1.0625 C 2.816406 -1.175781 2.90625 -1.304688 2.96875 -1.453125 C 3.03125 -1.597656 3.0625 -1.757812 3.0625 -1.9375 C 3.0625 -2.101562 3.03125 -2.257812 2.96875 -2.40625 C 2.90625 -2.5625 2.816406 -2.695312 2.703125 -2.8125 C 2.597656 -2.925781 2.46875 -3.015625 2.3125 -3.078125 C 2.164062 -3.140625 2.007812 -3.171875 1.84375 -3.171875 Z M 1.84375 -3.171875 "/></g></g></g></svg>