<svg xmlns="http://www.w3.org/2000/svg" xmlns:xlink="http://www.w3.org/1999/xlink" width="258" zoomAndPan="magnify" viewBox="0 0 193.5 57.749997" height="77" preserveAspectRatio="xMidYMid meet" version="1.0"><defs><g/></defs><g fill="#545454" fill-opacity="1"><g transform="translate(0.191445, 38.80005)"><g><path d="M 30.34375 -24.859375 L 30.34375 0 L 24.28125 0 L 24.28125 -14.90625 L 18.734375 0 L 13.84375 0 L 8.25 -14.9375 L 8.25 0 L 2.1875 0 L 2.1875 -24.859375 L 9.34375 -24.859375 L 16.328125 -7.640625 L 23.234375 -24.859375 Z M 30.34375 -24.859375 "/></g></g></g><g fill="#818cf8" fill-opacity="1"><g transform="translate(32.699153, 38.80005)"><g><path d="M 7.296875 -21.8125 C 6.347656 -21.8125 5.597656 -22.0625 5.046875 -22.5625 C 4.492188 -23.070312 4.21875 -23.71875 4.21875 -24.5 C 4.21875 -25.5625 4.628906 -26.46875 5.453125 -27.21875 C 6.273438 -27.976562 7.28125 -28.359375 8.46875 -28.359375 C 9.40625 -28.359375 10.144531 -28.101562 10.6875 -27.59375 C 11.226562 -27.09375 11.5 -26.441406 11.5 -25.640625 C 11.5 -24.597656 11.085938 -23.695312 10.265625 -22.9375 C 9.441406 -22.1875 8.453125 -21.8125 7.296875 -21.8125 Z M 9.90625 -19.75 L 6.4375 0 L 0.390625 0 L 3.859375 -19.75 Z M 9.90625 -19.75 "/></g></g></g><g fill="#818cf8" fill-opacity="1"><g transform="translate(43.142567, 38.80005)"><g><path d="M 7.296875 -21.8125 C 6.347656 -21.8125 5.597656 -22.0625 5.046875 -22.5625 C 4.492188 -23.070312 4.21875 -23.71875 4.21875 -24.5 C 4.21875 -25.5625 4.628906 -26.46875 5.453125 -27.21875 C 6.273438 -27.976562 7.28125 -28.359375 8.46875 -28.359375 C 9.40625 -28.359375 10.144531 -28.101562 10.6875 -27.59375 C 11.226562 -27.09375 11.5 -26.441406 11.5 -25.640625 C 11.5 -24.597656 11.085938 -23.695312 10.265625 -22.9375 C 9.441406 -22.1875 8.453125 -21.8125 7.296875 -21.8125 Z M 9.90625 -19.75 L 6.4375 0 L 0.390625 0 L 3.859375 -19.75 Z M 9.90625 -19.75 "/></g></g></g><g fill="#545454" fill-opacity="1"><g transform="translate(53.596966, 38.80005)"><g><path d="M 30.34375 -24.859375 L 30.34375 0 L 24.28125 0 L 24.28125 -14.90625 L 18.734375 0 L 13.84375 0 L 8.25 -14.9375 L 8.25 0 L 2.1875 0 L 2.1875 -24.859375 L 9.34375 -24.859375 L 16.328125 -7.640625 L 23.234375 -24.859375 Z M 30.34375 -24.859375 "/></g></g></g><g fill="#545454" fill-opacity="1"><g transform="translate(86.095444, 38.80005)"><g><path d="M 11.1875 0.28125 C 9.25 0.28125 7.503906 -0.128906 5.953125 -0.953125 C 4.410156 -1.773438 3.195312 -2.953125 2.3125 -4.484375 C 1.425781 -6.023438 0.984375 -7.820312 0.984375 -9.875 C 0.984375 -11.90625 1.429688 -13.691406 2.328125 -15.234375 C 3.234375 -16.785156 4.460938 -17.972656 6.015625 -18.796875 C 7.578125 -19.628906 9.328125 -20.046875 11.265625 -20.046875 C 13.191406 -20.046875 14.9375 -19.628906 16.5 -18.796875 C 18.0625 -17.972656 19.289062 -16.785156 20.1875 -15.234375 C 21.082031 -13.691406 21.53125 -11.90625 21.53125 -9.875 C 21.53125 -7.84375 21.070312 -6.050781 20.15625 -4.5 C 19.25 -2.957031 18.007812 -1.773438 16.4375 -0.953125 C 14.875 -0.128906 13.125 0.28125 11.1875 0.28125 Z M 11.1875 -4.953125 C 12.34375 -4.953125 13.328125 -5.375 14.140625 -6.21875 C 14.953125 -7.070312 15.359375 -8.289062 15.359375 -9.875 C 15.359375 -11.457031 14.960938 -12.671875 14.171875 -13.515625 C 13.390625 -14.367188 12.421875 -14.796875 11.265625 -14.796875 C 10.078125 -14.796875 9.09375 -14.375 8.3125 -13.53125 C 7.539062 -12.695312 7.15625 -11.476562 7.15625 -9.875 C 7.15625 -8.289062 7.535156 -7.070312 8.296875 -6.21875 C 9.066406 -5.375 10.03125 -4.953125 11.1875 -4.953125 Z M 11.1875 -4.953125 "/></g></g></g><g fill="#545454" fill-opacity="1"><g transform="translate(108.646136, 38.80005)"><g><path d="M 11.078125 -5.671875 L 15.359375 -19.75 L 21.8125 -19.75 L 14.796875 0 L 7.328125 0 L 0.3125 -19.75 L 6.796875 -19.75 Z M 11.078125 -5.671875 "/></g></g></g><g fill="#545454" fill-opacity="1"><g transform="translate(130.807411, 38.80005)"><g><path d="M 5.234375 -21.8125 C 4.171875 -21.8125 3.300781 -22.125 2.625 -22.75 C 1.957031 -23.375 1.625 -24.144531 1.625 -25.0625 C 1.625 -26.007812 1.957031 -26.796875 2.625 -27.421875 C 3.300781 -28.046875 4.171875 -28.359375 5.234375 -28.359375 C 6.273438 -28.359375 7.128906 -28.046875 7.796875 -27.421875 C 8.472656 -26.796875 8.8125 -26.007812 8.8125 -25.0625 C 8.8125 -24.144531 8.472656 -23.375 7.796875 -22.75 C 7.128906 -22.125 6.273438 -21.8125 5.234375 -21.8125 Z M 8.25 -19.75 L 8.25 0 L 2.1875 0 L 2.1875 -19.75 Z M 8.25 -19.75 "/></g></g></g><g fill="#545454" fill-opacity="1"><g transform="translate(141.250825, 38.80005)"><g><path d="M 20.8125 -10.203125 C 20.8125 -9.628906 20.78125 -9.035156 20.71875 -8.421875 L 7.015625 -8.421875 C 7.109375 -7.191406 7.5 -6.253906 8.1875 -5.609375 C 8.882812 -4.960938 9.742188 -4.640625 10.765625 -4.640625 C 12.273438 -4.640625 13.328125 -5.273438 13.921875 -6.546875 L 20.359375 -6.546875 C 20.023438 -5.253906 19.425781 -4.085938 18.5625 -3.046875 C 17.707031 -2.003906 16.628906 -1.1875 15.328125 -0.59375 C 14.035156 -0.0078125 12.582031 0.28125 10.96875 0.28125 C 9.039062 0.28125 7.320312 -0.128906 5.8125 -0.953125 C 4.300781 -1.773438 3.117188 -2.953125 2.265625 -4.484375 C 1.410156 -6.023438 0.984375 -7.820312 0.984375 -9.875 C 0.984375 -11.925781 1.398438 -13.71875 2.234375 -15.25 C 3.078125 -16.789062 4.253906 -17.972656 5.765625 -18.796875 C 7.273438 -19.628906 9.007812 -20.046875 10.96875 -20.046875 C 12.882812 -20.046875 14.585938 -19.640625 16.078125 -18.828125 C 17.566406 -18.023438 18.726562 -16.878906 19.5625 -15.390625 C 20.394531 -13.910156 20.8125 -12.179688 20.8125 -10.203125 Z M 14.625 -11.796875 C 14.625 -12.828125 14.269531 -13.648438 13.5625 -14.265625 C 12.851562 -14.878906 11.96875 -15.1875 10.90625 -15.1875 C 9.882812 -15.1875 9.023438 -14.890625 8.328125 -14.296875 C 7.640625 -13.710938 7.210938 -12.878906 7.046875 -11.796875 Z M 14.625 -11.796875 "/></g></g></g><g fill="#545454" fill-opacity="1"><g transform="translate(163.058088, 38.80005)"><g><path d="M 10.234375 0.28125 C 8.503906 0.28125 6.96875 -0.0078125 5.625 -0.59375 C 4.28125 -1.1875 3.21875 -1.992188 2.4375 -3.015625 C 1.664062 -4.046875 1.234375 -5.203125 1.140625 -6.484375 L 7.109375 -6.484375 C 7.179688 -5.796875 7.5 -5.238281 8.0625 -4.8125 C 8.632812 -4.382812 9.332031 -4.171875 10.15625 -4.171875 C 10.914062 -4.171875 11.5 -4.316406 11.90625 -4.609375 C 12.320312 -4.910156 12.53125 -5.296875 12.53125 -5.765625 C 12.53125 -6.335938 12.234375 -6.757812 11.640625 -7.03125 C 11.054688 -7.300781 10.101562 -7.601562 8.78125 -7.9375 C 7.363281 -8.257812 6.179688 -8.601562 5.234375 -8.96875 C 4.296875 -9.34375 3.484375 -9.921875 2.796875 -10.703125 C 2.109375 -11.492188 1.765625 -12.566406 1.765625 -13.921875 C 1.765625 -15.046875 2.078125 -16.070312 2.703125 -17 C 3.328125 -17.9375 4.25 -18.675781 5.46875 -19.21875 C 6.6875 -19.769531 8.132812 -20.046875 9.8125 -20.046875 C 12.289062 -20.046875 14.242188 -19.429688 15.671875 -18.203125 C 17.097656 -16.972656 17.914062 -15.34375 18.125 -13.3125 L 12.53125 -13.3125 C 12.4375 -14 12.132812 -14.539062 11.625 -14.9375 C 11.125 -15.34375 10.457031 -15.546875 9.625 -15.546875 C 8.914062 -15.546875 8.375 -15.410156 8 -15.140625 C 7.625 -14.867188 7.4375 -14.492188 7.4375 -14.015625 C 7.4375 -13.453125 7.734375 -13.03125 8.328125 -12.75 C 8.929688 -12.46875 9.875 -12.179688 11.15625 -11.890625 C 12.613281 -11.515625 13.800781 -11.144531 14.71875 -10.78125 C 15.644531 -10.414062 16.457031 -9.828125 17.15625 -9.015625 C 17.851562 -8.203125 18.210938 -7.109375 18.234375 -5.734375 C 18.234375 -4.578125 17.90625 -3.546875 17.25 -2.640625 C 16.601562 -1.734375 15.671875 -1.019531 14.453125 -0.5 C 13.242188 0.0195312 11.835938 0.28125 10.234375 0.28125 Z M 10.234375 0.28125 "/></g></g></g><g fill="#818cf8" fill-opacity="1"><g transform="translate(182.822691, 38.80005)"><g><path d="M 5.03125 0.28125 C 3.96875 0.28125 3.097656 -0.03125 2.421875 -0.65625 C 1.753906 -1.28125 1.421875 -2.050781 1.421875 -2.96875 C 1.421875 -3.914062 1.753906 -4.707031 2.421875 -5.34375 C 3.097656 -5.976562 3.96875 -6.296875 5.03125 -6.296875 C 6.0625 -6.296875 6.914062 -5.976562 7.59375 -5.34375 C 8.269531 -4.707031 8.609375 -3.914062 8.609375 -2.96875 C 8.609375 -2.050781 8.269531 -1.28125 7.59375 -0.65625 C 6.914062 -0.03125 6.0625 0.28125 5.03125 0.28125 Z M 5.03125 0.28125 "/></g></g></g></svg>