<svg xmlns="http://www.w3.org/2000/svg" xmlns:xlink="http://www.w3.org/1999/xlink" width="258" zoomAndPan="magnify" viewBox="0 0 193.5 57.749997" height="77" preserveAspectRatio="xMidYMid meet" version="1.0"><defs><g/></defs><g fill="#1d2951" fill-opacity="1"><g transform="translate(0.168108, 37.786418)"><g><path d="M 7.625 -14.890625 L 1.25 -14.890625 L 1.25 0 L 7.84375 0 C 12.8125 0 15.40625 -3.078125 15.40625 -7.4375 C 15.40625 -12.390625 12.328125 -14.890625 7.625 -14.890625 Z M 5.9375 -3.90625 L 5.9375 -10.96875 L 7.296875 -10.96875 C 9.515625 -10.96875 10.71875 -9.84375 10.71875 -7.4375 C 10.71875 -5.03125 9.515625 -3.90625 7.296875 -3.90625 Z M 5.9375 -3.90625 "/></g></g></g><g fill="#1d2951" fill-opacity="1"><g transform="translate(16.43575, 37.786418)"><g><path d="M 5.9375 -14.890625 L 1.25 -14.890625 L 1.25 0 L 12.578125 0 L 12.578125 -3.875 L 5.9375 -3.875 Z M 5.9375 -14.890625 "/></g></g></g><g fill="#1d2951" fill-opacity="1"><g transform="translate(29.232411, 37.786418)"><g><path d="M 16.125 0 L 10.5625 -14.890625 L 5.921875 -14.890625 L 0.3125 0 L 5.203125 0 L 5.8125 -2.03125 L 10.59375 -2.03125 L 11.203125 0 Z M 7.65625 -8.046875 L 8.21875 -10.390625 L 8.78125 -8.046875 L 9.65625 -5.15625 L 6.78125 -5.15625 Z M 7.65625 -8.046875 "/></g></g></g><g fill="#1d2951" fill-opacity="1"><g transform="translate(45.667328, 37.786418)"><g><path d="M 10.09375 -9.484375 L 9.46875 -6.453125 L 8.828125 -9.484375 L 7.4375 -14.890625 L 1.25 -14.890625 L 1.25 0 L 5.625 0 L 5.625 -6.25 L 5.4375 -9.671875 L 6.171875 -6.25 L 7.796875 0 L 11.1875 0 L 12.796875 -6.25 L 13.59375 -9.828125 L 13.375 -6.25 L 13.375 0 L 17.640625 0 L 17.640625 -14.890625 L 11.4375 -14.890625 Z M 10.09375 -9.484375 "/></g></g></g><g fill="#1d2951" fill-opacity="1"><g transform="translate(64.569575, 37.786418)"><g><path d="M 5.9375 0 L 5.9375 -14.890625 L 1.25 -14.890625 L 1.25 0 Z M 5.9375 0 "/></g></g></g><g fill="#1d2951" fill-opacity="1"><g transform="translate(71.762462, 37.786418)"><g><path d="M 10.46875 -9.828125 L 10.46875 -7.09375 C 10.078125 -7.78125 9.671875 -8.484375 9.265625 -9.171875 L 5.890625 -14.890625 L 1.25 -14.890625 L 1.25 0 L 5.859375 0 L 5.859375 -7.71875 C 6.296875 -6.9375 6.734375 -6.140625 7.1875 -5.375 L 10.328125 0 L 15.078125 0 L 15.078125 -14.890625 L 10.46875 -14.890625 Z M 10.46875 -9.828125 "/></g></g></g><g fill="#1d2951" fill-opacity="1"><g transform="translate(88.092832, 37.786418)"><g><path d="M 5.9375 0 L 5.9375 -14.890625 L 1.25 -14.890625 L 1.25 0 Z M 5.9375 0 "/></g></g></g><g fill="#1d2951" fill-opacity="1"><g transform="translate(96.395972, 37.039651)"><g><path d="M 6.390625 0.109375 C 5.316406 0.109375 4.296875 -0.0703125 3.328125 -0.4375 C 2.359375 -0.8125 1.601562 -1.289062 1.0625 -1.875 L 1.546875 -2.671875 C 2.066406 -2.128906 2.757812 -1.6875 3.625 -1.34375 C 4.5 -1.007812 5.414062 -0.84375 6.375 -0.84375 C 7.769531 -0.84375 8.820312 -1.101562 9.53125 -1.625 C 10.238281 -2.15625 10.59375 -2.847656 10.59375 -3.703125 C 10.59375 -4.359375 10.40625 -4.878906 10.03125 -5.265625 C 9.65625 -5.660156 9.1875 -5.960938 8.625 -6.171875 C 8.070312 -6.378906 7.320312 -6.59375 6.375 -6.8125 C 5.300781 -7.082031 4.441406 -7.34375 3.796875 -7.59375 C 3.148438 -7.84375 2.597656 -8.226562 2.140625 -8.75 C 1.691406 -9.269531 1.46875 -9.96875 1.46875 -10.84375 C 1.46875 -11.5625 1.65625 -12.210938 2.03125 -12.796875 C 2.40625 -13.390625 2.976562 -13.859375 3.75 -14.203125 C 4.519531 -14.554688 5.484375 -14.734375 6.640625 -14.734375 C 7.453125 -14.734375 8.25 -14.613281 9.03125 -14.375 C 9.8125 -14.144531 10.488281 -13.828125 11.0625 -13.421875 L 10.65625 -12.5625 C 10.070312 -12.96875 9.425781 -13.273438 8.71875 -13.484375 C 8.019531 -13.691406 7.328125 -13.796875 6.640625 -13.796875 C 5.296875 -13.796875 4.273438 -13.523438 3.578125 -12.984375 C 2.878906 -12.441406 2.53125 -11.738281 2.53125 -10.875 C 2.53125 -10.21875 2.71875 -9.691406 3.09375 -9.296875 C 3.46875 -8.910156 3.929688 -8.613281 4.484375 -8.40625 C 5.046875 -8.195312 5.8125 -7.972656 6.78125 -7.734375 C 7.851562 -7.472656 8.707031 -7.210938 9.34375 -6.953125 C 9.988281 -6.703125 10.535156 -6.320312 10.984375 -5.8125 C 11.441406 -5.3125 11.671875 -4.628906 11.671875 -3.765625 C 11.671875 -3.054688 11.476562 -2.40625 11.09375 -1.8125 C 10.707031 -1.226562 10.113281 -0.757812 9.3125 -0.40625 C 8.519531 -0.0625 7.546875 0.109375 6.390625 0.109375 Z M 6.390625 0.109375 "/></g></g></g><g fill="#1d2951" fill-opacity="1"><g transform="translate(107.833517, 37.039651)"><g><path d="M 2.546875 -14.640625 L 3.609375 -14.640625 L 3.609375 0 L 2.546875 0 Z M 2.546875 -14.640625 "/></g></g></g><g fill="#1d2951" fill-opacity="1"><g transform="translate(112.705456, 37.039651)"><g><path d="M 11.25 -7.546875 C 12.289062 -7.347656 13.085938 -6.9375 13.640625 -6.3125 C 14.191406 -5.6875 14.46875 -4.875 14.46875 -3.875 C 14.46875 -2.625 14.015625 -1.664062 13.109375 -1 C 12.203125 -0.332031 10.859375 0 9.078125 0 L 2.546875 0 L 2.546875 -14.640625 L 8.65625 -14.640625 C 10.238281 -14.640625 11.472656 -14.3125 12.359375 -13.65625 C 13.242188 -13.007812 13.6875 -12.085938 13.6875 -10.890625 C 13.6875 -10.054688 13.46875 -9.351562 13.03125 -8.78125 C 12.59375 -8.207031 12 -7.796875 11.25 -7.546875 Z M 3.609375 -13.71875 L 3.609375 -7.875 L 8.609375 -7.875 C 9.890625 -7.875 10.875 -8.117188 11.5625 -8.609375 C 12.257812 -9.109375 12.609375 -9.84375 12.609375 -10.8125 C 12.609375 -11.757812 12.257812 -12.476562 11.5625 -12.96875 C 10.875 -13.46875 9.890625 -13.71875 8.609375 -13.71875 Z M 9.078125 -0.921875 C 10.492188 -0.921875 11.566406 -1.164062 12.296875 -1.65625 C 13.035156 -2.15625 13.40625 -2.921875 13.40625 -3.953125 C 13.40625 -4.984375 13.035156 -5.742188 12.296875 -6.234375 C 11.566406 -6.722656 10.492188 -6.96875 9.078125 -6.96875 L 3.609375 -6.96875 L 3.609375 -0.921875 Z M 9.078125 -0.921875 "/></g></g></g><g fill="#1d2951" fill-opacity="1"><g transform="translate(127.133065, 37.039651)"><g><path d="M 8.28125 0.109375 C 6.425781 0.109375 4.984375 -0.425781 3.953125 -1.5 C 2.929688 -2.570312 2.421875 -4.140625 2.421875 -6.203125 L 2.421875 -14.640625 L 3.484375 -14.640625 L 3.484375 -6.25 C 3.484375 -4.445312 3.894531 -3.097656 4.71875 -2.203125 C 5.539062 -1.316406 6.734375 -0.875 8.296875 -0.875 C 9.847656 -0.875 11.035156 -1.316406 11.859375 -2.203125 C 12.679688 -3.097656 13.09375 -4.445312 13.09375 -6.25 L 13.09375 -14.640625 L 14.15625 -14.640625 L 14.15625 -6.203125 C 14.15625 -4.140625 13.640625 -2.570312 12.609375 -1.5 C 11.578125 -0.425781 10.132812 0.109375 8.28125 0.109375 Z M 8.28125 0.109375 "/></g></g></g><g fill="#1d2951" fill-opacity="1"><g transform="translate(142.41796, 37.039651)"><g><path d="M 6.390625 0.109375 C 5.316406 0.109375 4.296875 -0.0703125 3.328125 -0.4375 C 2.359375 -0.8125 1.601562 -1.289062 1.0625 -1.875 L 1.546875 -2.671875 C 2.066406 -2.128906 2.757812 -1.6875 3.625 -1.34375 C 4.5 -1.007812 5.414062 -0.84375 6.375 -0.84375 C 7.769531 -0.84375 8.820312 -1.101562 9.53125 -1.625 C 10.238281 -2.15625 10.59375 -2.847656 10.59375 -3.703125 C 10.59375 -4.359375 10.40625 -4.878906 10.03125 -5.265625 C 9.65625 -5.660156 9.1875 -5.960938 8.625 -6.171875 C 8.070312 -6.378906 7.320312 -6.59375 6.375 -6.8125 C 5.300781 -7.082031 4.441406 -7.34375 3.796875 -7.59375 C 3.148438 -7.84375 2.597656 -8.226562 2.140625 -8.75 C 1.691406 -9.269531 1.46875 -9.96875 1.46875 -10.84375 C 1.46875 -11.5625 1.65625 -12.210938 2.03125 -12.796875 C 2.40625 -13.390625 2.976562 -13.859375 3.75 -14.203125 C 4.519531 -14.554688 5.484375 -14.734375 6.640625 -14.734375 C 7.453125 -14.734375 8.25 -14.613281 9.03125 -14.375 C 9.8125 -14.144531 10.488281 -13.828125 11.0625 -13.421875 L 10.65625 -12.5625 C 10.070312 -12.96875 9.425781 -13.273438 8.71875 -13.484375 C 8.019531 -13.691406 7.328125 -13.796875 6.640625 -13.796875 C 5.296875 -13.796875 4.273438 -13.523438 3.578125 -12.984375 C 2.878906 -12.441406 2.53125 -11.738281 2.53125 -10.875 C 2.53125 -10.21875 2.71875 -9.691406 3.09375 -9.296875 C 3.46875 -8.910156 3.929688 -8.613281 4.484375 -8.40625 C 5.046875 -8.195312 5.8125 -7.972656 6.78125 -7.734375 C 7.851562 -7.472656 8.707031 -7.210938 9.34375 -6.953125 C 9.988281 -6.703125 10.535156 -6.320312 10.984375 -5.8125 C 11.441406 -5.3125 11.671875 -4.628906 11.671875 -3.765625 C 11.671875 -3.054688 11.476562 -2.40625 11.09375 -1.8125 C 10.707031 -1.226562 10.113281 -0.757812 9.3125 -0.40625 C 8.519531 -0.0625 7.546875 0.109375 6.390625 0.109375 Z M 6.390625 0.109375 "/></g></g></g><g fill="#1d2951" fill-opacity="1"><g transform="translate(153.855504, 37.039651)"><g><path d="M 2.546875 -14.640625 L 3.609375 -14.640625 L 3.609375 0 L 2.546875 0 Z M 2.546875 -14.640625 "/></g></g></g><g fill="#1d2951" fill-opacity="1"><g transform="translate(158.727444, 37.039651)"><g><path d="M 6.390625 0.109375 C 5.316406 0.109375 4.296875 -0.0703125 3.328125 -0.4375 C 2.359375 -0.8125 1.601562 -1.289062 1.0625 -1.875 L 1.546875 -2.671875 C 2.066406 -2.128906 2.757812 -1.6875 3.625 -1.34375 C 4.5 -1.007812 5.414062 -0.84375 6.375 -0.84375 C 7.769531 -0.84375 8.820312 -1.101562 9.53125 -1.625 C 10.238281 -2.15625 10.59375 -2.847656 10.59375 -3.703125 C 10.59375 -4.359375 10.40625 -4.878906 10.03125 -5.265625 C 9.65625 -5.660156 9.1875 -5.960938 8.625 -6.171875 C 8.070312 -6.378906 7.320312 -6.59375 6.375 -6.8125 C 5.300781 -7.082031 4.441406 -7.34375 3.796875 -7.59375 C 3.148438 -7.84375 2.597656 -8.226562 2.140625 -8.75 C 1.691406 -9.269531 1.46875 -9.96875 1.46875 -10.84375 C 1.46875 -11.5625 1.65625 -12.210938 2.03125 -12.796875 C 2.40625 -13.390625 2.976562 -13.859375 3.75 -14.203125 C 4.519531 -14.554688 5.484375 -14.734375 6.640625 -14.734375 C 7.453125 -14.734375 8.25 -14.613281 9.03125 -14.375 C 9.8125 -14.144531 10.488281 -13.828125 11.0625 -13.421875 L 10.65625 -12.5625 C 10.070312 -12.96875 9.425781 -13.273438 8.71875 -13.484375 C 8.019531 -13.691406 7.328125 -13.796875 6.640625 -13.796875 C 5.296875 -13.796875 4.273438 -13.523438 3.578125 -12.984375 C 2.878906 -12.441406 2.53125 -11.738281 2.53125 -10.875 C 2.53125 -10.21875 2.71875 -9.691406 3.09375 -9.296875 C 3.46875 -8.910156 3.929688 -8.613281 4.484375 -8.40625 C 5.046875 -8.195312 5.8125 -7.972656 6.78125 -7.734375 C 7.851562 -7.472656 8.707031 -7.210938 9.34375 -6.953125 C 9.988281 -6.703125 10.535156 -6.320312 10.984375 -5.8125 C 11.441406 -5.3125 11.671875 -4.628906 11.671875 -3.765625 C 11.671875 -3.054688 11.476562 -2.40625 11.09375 -1.8125 C 10.707031 -1.226562 10.113281 -0.757812 9.3125 -0.40625 C 8.519531 -0.0625 7.546875 0.109375 6.390625 0.109375 Z M 6.390625 0.109375 "/></g></g></g><g fill="#1d2951" fill-opacity="1"><g transform="translate(170.164988, 37.039651)"><g><path d="M 8.765625 0.109375 C 7.328125 0.109375 6.03125 -0.210938 4.875 -0.859375 C 3.71875 -1.515625 2.804688 -2.40625 2.140625 -3.53125 C 1.484375 -4.65625 1.15625 -5.914062 1.15625 -7.3125 C 1.15625 -8.707031 1.484375 -9.96875 2.140625 -11.09375 C 2.804688 -12.226562 3.71875 -13.117188 4.875 -13.765625 C 6.03125 -14.410156 7.328125 -14.734375 8.765625 -14.734375 C 10.191406 -14.734375 11.484375 -14.410156 12.640625 -13.765625 C 13.804688 -13.128906 14.71875 -12.242188 15.375 -11.109375 C 16.039062 -9.984375 16.375 -8.71875 16.375 -7.3125 C 16.375 -5.90625 16.039062 -4.632812 15.375 -3.5 C 14.71875 -2.375 13.804688 -1.488281 12.640625 -0.84375 C 11.484375 -0.207031 10.191406 0.109375 8.765625 0.109375 Z M 8.765625 -0.875 C 9.984375 -0.875 11.085938 -1.148438 12.078125 -1.703125 C 13.066406 -2.265625 13.847656 -3.035156 14.421875 -4.015625 C 14.992188 -5.003906 15.28125 -6.101562 15.28125 -7.3125 C 15.28125 -8.53125 14.992188 -9.628906 14.421875 -10.609375 C 13.847656 -11.585938 13.066406 -12.351562 12.078125 -12.90625 C 11.085938 -13.46875 9.984375 -13.75 8.765625 -13.75 C 7.535156 -13.75 6.421875 -13.46875 5.421875 -12.90625 C 4.429688 -12.351562 3.648438 -11.585938 3.078125 -10.609375 C 2.503906 -9.628906 2.21875 -8.53125 2.21875 -7.3125 C 2.21875 -6.101562 2.503906 -5.003906 3.078125 -4.015625 C 3.648438 -3.035156 4.429688 -2.265625 5.421875 -1.703125 C 6.421875 -1.148438 7.535156 -0.875 8.765625 -0.875 Z M 8.765625 -0.875 "/></g></g></g></svg>