<svg xmlns="http://www.w3.org/2000/svg" xmlns:xlink="http://www.w3.org/1999/xlink" width="758" zoomAndPan="magnify" viewBox="0 0 568.5 526.499984" height="702" preserveAspectRatio="xMidYMid meet" version="1.0"><defs><g/><clipPath id="b1cee73733"><path d="M 180 221 L 388 221 L 388 340 L 180 340 Z M 180 221 " clip-rule="nonzero"/></clipPath><clipPath id="84ec96c9e5"><path d="M 188.902344 221.21875 L 387.9375 321.964844 L 379.09375 339.433594 L 180.0625 238.6875 Z M 188.902344 221.21875 " clip-rule="nonzero"/></clipPath></defs><g fill="#bf0000" fill-opacity="1"><g transform="translate(183.685869, 359.50137)"><g><path d="M 78.359375 0 L 31.484375 -134.25 C 30.515625 -136.851562 29.132812 -140.066406 27.34375 -143.890625 C 25.550781 -147.710938 23.429688 -151.578125 20.984375 -155.484375 C 18.546875 -159.390625 15.863281 -162.765625 12.9375 -165.609375 C 10.007812 -168.460938 6.914062 -170.210938 3.65625 -170.859375 L 81.53125 -170.859375 C 78.113281 -170.046875 76.035156 -167.566406 75.296875 -163.421875 C 74.566406 -159.273438 74.648438 -154.675781 75.546875 -149.625 C 76.441406 -144.582031 77.457031 -140.109375 78.59375 -136.203125 L 104.953125 -56.625 L 131.328125 -136.453125 C 132.460938 -140.191406 133.476562 -144.582031 134.375 -149.625 C 135.269531 -154.675781 135.390625 -159.273438 134.734375 -163.421875 C 134.085938 -167.566406 131.972656 -170.046875 128.390625 -170.859375 L 183.3125 -170.859375 C 180.0625 -170.210938 176.96875 -168.460938 174.03125 -165.609375 C 171.101562 -162.765625 168.421875 -159.429688 165.984375 -155.609375 C 163.546875 -151.785156 161.429688 -147.960938 159.640625 -144.140625 C 157.847656 -140.316406 156.460938 -137.019531 155.484375 -134.25 L 108.375 0 Z M 78.359375 0 "/></g></g></g><g clip-path="url(#b1cee73733)"><g clip-path="url(#84ec96c9e5)"><path fill="#ffffff" d="M 188.902344 221.21875 L 387.953125 321.972656 L 379.109375 339.441406 L 180.0625 238.6875 Z M 188.902344 221.21875 " fill-opacity="1" fill-rule="nonzero"/></g></g></svg>